PathFileType	4	(X/Y/Z)	Run_400 01
DataRate	CameraRate	NumFrames	NumMarkers	Units	OrigDataRate	OrigDataStartFrame	OrigNumFrames
120	120	6	42	mm	120	146	128
Frame#	Time	LASI			RASI			LPSI			RPSI			RTH1			RTH2			RTH3			LTH1			LTH2			LTH3			RTB1			RTB2			RTB3			LTB1			LTB2			LTB3			RCAL			RTOE			RMT5			LCAL			LTOE			LMT5			LACR			RACR			CLAV			C7			RUA1			RUA2			RUA3			RLEL			RMEL			LUA1			LUA2			LUA3			LLEL			LMEL			RFAsuperior			RFAradius			RFAulna			LFAsuperior			LFAradius			LFAulna			
		X1	Y1	Z1	X2	Y2	Z2	X3	Y3	Z3	X4	Y4	Z4	X5	Y5	Z5	X6	Y6	Z6	X7	Y7	Z7	X8	Y8	Z8	X9	Y9	Z9	X10	Y10	Z10	X11	Y11	Z11	X12	Y12	Z12	X13	Y13	Z13	X14	Y14	Z14	X15	Y15	Z15	X16	Y16	Z16	X17	Y17	Z17	X18	Y18	Z18	X19	Y19	Z19	X20	Y20	Z20	X21	Y21	Z21	X22	Y22	Z22	X23	Y23	Z23	X24	Y24	Z24	X25	Y25	Z25	X26	Y26	Z26	X27	Y27	Z27	X28	Y28	Z28	X29	Y29	Z29	X30	Y30	Z30	X31	Y31	Z31	X32	Y32	Z32	X33	Y33	Z33	X34	Y34	Z34	X35	Y35	Z35	X36	Y36	Z36	X37	Y37	Z37	X38	Y38	Z38	X39	Y39	Z39	X40	Y40	Z40	X41	Y41	Z41	X42	Y42	Z42	

146	1.291667	724.777708	991.428403	-509.028523	724.955845	1031.066264	-269.678576	560.255803	1042.986321	-422.973102	561.105362	1048.263663	-335.312578	763.746988	880.434882	-218.600369	877.026795	817.227709	-245.012365	882.651316	676.6404230000001	-238.203352	626.307731	857.7516440000001	-545.242779	625.337182	736.069241	-525.881133	494.547119	648.881607	-513.345427	912.227156	490.68632	-299.225018	841.319632	458.624435	-245.991955	790.978779	356.080406	-312.24765	415.142456	415.374684	-445.851136	313.742493	358.822326	-496.426901	283.873134	275.701613	-425.025208	620.63479	303.7285	-323.548076	801.80616	179.496559	-311.639032	759.680288	187.01597	-223.372376	126.672779	261.086449	-425.904666	257.865653	91.34739500000001	-396.680545	207.08276	80.097168	-476.579185	757.008896	1465.307963	-562.333195	665.213241	1485.913465	-212.062629	794.080738	1431.230243	-332.558306	677.280659	1514.051686	-398.179957	595.205566	1424.499808	-144.112474	582.047782	1356.058507	-127.529217	481.356883	1389.796871	-128.527961	457.431833	1314.499496	-69.271905	421.331415	1298.910787	-149.329468	748.470607	1396.05491	-625.731854	692.63253	1323.276307	-635.552158	757.173353	1312.071528	-673.394017	761.633738	1214.5052	-730.0661250000001	713.749499	1154.041958	-681.667385	515.344782	1252.932322	-59.837639	630.370641	1132.361138	-91.75220899999999	570.5814350000001	1097.769532	-87.08762299999999	821.100623	1236.193663	-691.5991320000001	905.868797	1271.796196	-544.050519	932.3618269999999	1213.645342	-562.868902	
147	1.3	726.862737	994.669999	-506.800785	726.051809	1035.529438	-269.655139	562.520401	1047.807433	-424.074032	563.423528	1053.696582	-336.175305	763.740095	883.352757	-218.118351	876.89309	819.22857	-243.309879	880.251274	677.110154	-241.490752	626.798546	861.776586	-545.503091	624.694541	739.497508	-527.170259	493.80968	652.64466	-515.11	923.0016910000001	489.890238	-301.107268	856.283181	450.43888	-247.517429	815.682199	343.664906	-314.787738	407.717089	420.556775	-448.128324	304.019851	368.420406	-498.45103	270.197414	286.944064	-427.186186	651.198065	272.484592	-324.827101	845.7214289999999	170.364591	-317.55747	804.560328	171.496687	-228.018245	117.969792	284.904178	-427.952982	230.33364	102.323819	-397.163416	175.985389	92.382023	-475.23754	760.330138	1469.713401	-560.242461	664.264149	1488.870521	-212.169954	794.817345	1434.566236	-330.549865	678.737218	1517.492217	-397.470957	593.780233	1428.722321	-144.588899	580.016406	1360.218461	-128.092396	479.704089	1394.721462	-130.299436	454.347268	1319.930291	-71.071135	419.461208	1304.098514	-151.685059	752.114298	1401.67725	-624.292018	694.798596	1330.75915	-636.828934	760.360182	1317.298571	-672.288786	763.4357690000001	1219.77469	-729.364676	711.785873	1160.576688	-682.717267	512.160195	1258.730128	-60.255997	628.324257	1138.327146	-89.655809	568.766222	1103.455054	-85.02353599999999	822.127224	1240.339516	-689.393065	902.6683829999999	1273.432842	-538.78531	928.400385	1215.067053	-557.008866	
148	1.308333	728.40364	997.753633	-504.898987	726.674649	1038.604182	-269.233741	564.503925	1052.186918	-425.163137	565.6197539999999	1058.745913	-337.058966	762.418912	884.100043	-217.318562	876.160631	819.220535	-241.92531	876.996615	675.917809	-243.921112	628.413142	864.950643	-545.699715	626.161801	742.124695	-528.680254	495.522619	654.3909200000001	-516.817541	931.819904	487.705676	-302.624614	869.760292	441.425245	-248.996154	839.165027	331.520687	-317.270807	401.836683	424.583007	-449.753605	295.815172	377.756097	-499.974801	256.862467	299.15912	-428.520248	682.439029	242.283583	-326.48171	887.6919	164.169856	-323.245099	848.215019	158.832398	-232.688773	109.647899	309.184159	-430.422149	202.797349	116.533115	-396.105852	146.225272	108.398904	-472.60054	763.610948	1473.180739	-558.38644	663.6647840000001	1491.143306	-212.336417	795.676925	1437.288949	-328.729134	680.55989	1520.420596	-396.762787	592.848842	1432.137606	-144.960783	578.546238	1363.575445	-128.657455	478.584859	1398.658226	-131.729926	452.033464	1324.261332	-72.633455	418.423342	1308.177861	-153.683518	755.546353	1406.370287	-623.042872	696.634509	1337.789965	-638.289215	763.021209	1321.854688	-671.88022	764.4072609999999	1224.288271	-729.130587	709.171473	1166.594439	-684.113912	509.759706	1263.415767	-60.591191	627.138785	1143.290399	-87.650038	567.771213	1108.190104	-83.154509	822.41247	1243.666477	-687.797975	898.950569	1274.088178	-534.308276	923.880753	1215.459571	-552.257515	
149	1.316667	729.5725619999999	1000.747662	-503.663711	726.907597	1040.44562	-268.544257	566.275543	1056.006173	-426.10842	567.528761	1063.015151	-337.966702	760.105226	882.876718	-216.384915	875.0099740000001	817.250275	-241.146071	873.12104	673.164595	-245.240808	631.024632	867.114716	-545.780585	629.398148	743.886069	-529.8583640000001	499.300396	654.5280770000001	-518.32865	938.6670360000001	483.983755	-303.626986	881.418043	431.613548	-250.339779	861.159916	319.692102	-319.594927	397.277534	428.186356	-450.525237	289.210161	387.135937	-501.004258	244.191091	312.868238	-429.013937	713.868608	213.881573	-328.796617	926.840815	160.413847	-328.213554	889.351093	148.769439	-237.146	101.156006	333.716122	-433.535276	176.355679	134.367569	-393.305044	119.63321	127.744561	-468.996839	766.815834	1475.678739	-556.7658290000001	663.478195	1492.676281	-212.483278	796.543173	1439.270051	-327.113047	682.722843	1522.725835	-395.976375	592.399085	1434.694472	-145.188306	577.684984	1366.049924	-129.046879	477.989576	1401.523742	-132.735957	450.507125	1327.417938	-73.88752599999999	418.195904	1311.069528	-155.275906	758.672276	1410.033695	-622.000611	698.1546049999999	1344.239928	-639.877938	765.165398	1325.72162	-672.048644	764.531711	1227.961095	-729.250216	705.881042	1171.978865	-685.712412	508.197344	1266.964687	-60.739225	626.901421	1147.246505	-85.559022	567.656866	1111.952964	-81.445671	822.000076	1246.026785	-686.746883	894.810509	1273.634214	-530.535509	918.8922659999999	1214.649181	-548.673677	
150	1.325	730.631496	1003.653021	-503.255919	726.86009	1041.296515	-267.713408	567.901032	1059.123928	-426.786019	568.9913330000001	1066.183439	-338.75933	757.253571	880.156999	-215.455066	873.447155	813.449016	-241.035415	868.518048	668.815473	-245.675604	634.367525	868.296521	-545.750596	633.904033	744.850712	-530.233123	504.772736	653.3967720000001	-519.637562	943.643331	478.876251	-304.108469	891.02768	421.358406	-251.540488	881.467585	308.429473	-321.641373	393.927182	431.950174	-450.423531	284.332353	396.781625	-501.618195	232.658374	328.322045	-428.91501	744.811223	188.28554	-331.904229	962.45135	158.328676	-332.221388	926.84488	140.912407	-241.16941	92.53925599999999	358.551203	-437.39741	152.308131	155.906422	-389.167247	97.378848	149.723378	-464.979005	769.902115	1477.215222	-555.356167	663.770099	1493.41626	-212.501851	797.386077	1440.407805	-325.703698	685.123006	1524.322314	-395.113388	592.43219	1436.342103	-145.230901	577.455924	1367.583361	-129.121084	477.932827	1403.275082	-133.293741	449.792512	1329.351826	-74.761556	418.7055	1312.713889	-156.415358	761.370503	1412.654631	-621.1506890000001	699.361464	1349.933208	-641.491323	766.746171	1328.804691	-672.43615	763.808544	1230.76318	-729.642714	701.8666490000001	1176.66293	-687.334673	507.538908	1269.372674	-60.616249	627.656476	1150.202275	-83.270914	568.488374	1114.725163	-79.814455	820.919845	1247.331173	-686.181155	890.355123	1271.934933	-527.400538	913.475434	1212.493338	-546.072539	
151	1.333333	731.794113	1006.335879	-503.581218	726.640626	1041.363076	-266.851117	569.451941	1061.37554	-427.152356	569.965027	1068.055955	-339.272014	754.3628629999999	876.51059	-214.559205	871.3024	807.968451	-241.452951	862.885324	662.82355	-245.731912	638.151084	868.637978	-545.67335	639.206835	745.106747	-529.704336	511.56459	651.250796	-520.793302	946.909074	472.876699	-304.262052	898.53067	411.223719	-252.704368	899.817589	298.176644	-323.403544	391.805682	436.107754	-449.714447	281.233225	406.879792	-501.942588	222.827335	345.372121	-428.670753	774.252585	166.46653	-335.728156	993.908662	157.080142	-335.357464	959.8088749999999	134.802451	-244.698677	84.529836	383.865139	-441.922301	131.634191	180.629747	-384.573921	79.563818	173.659964	-461.159405	772.801564	1477.820632	-554.12755	664.551977	1493.326191	-212.268234	798.22085	1440.659557	-324.51119	687.5949000000001	1525.181331	-394.253437	592.942723	1437.010764	-145.046962	577.84735	1368.137342	-128.811039	478.423847	1403.888367	-133.423368	449.894182	1330.040501	-75.201936	419.829855	1313.051206	-157.048584	763.561149	1414.27805	-620.46392	700.251796	1354.641242	-642.963573	767.685501	1330.950771	-672.698912	762.25501	1232.686716	-730.249914	697.135645	1180.62675	-688.840368	507.82302	1270.650712	-60.178947	629.40201	1152.183692	-80.768209	570.316377	1116.503257	-78.162336	819.174527	1247.53939	-686.042901	885.703315	1268.871246	-524.88986	907.62401	1208.912027	-544.084177	
